# Blender v2.83.0 OBJ File: 'claws.blend'
# www.blender.org
v -0.013652 -0.071980 0.070570
v -0.013652 0.066353 0.070570
v -0.013652 -0.071980 -0.067763
v -0.013652 0.066353 -0.067763
v 0.035252 -0.071980 0.070570
v 0.035252 0.066353 0.070570
v 0.035252 -0.071980 -0.067763
v 0.035252 0.066353 -0.067763
vt 0.700000 0.700000
vt 0.100000 0.700000
vt 0.100000 0.100000
vt 0.700000 0.100000
vt 0.700000 0.700000
vt 0.100000 0.700000
vt 0.100000 0.100000
vt 0.700000 0.100000
vt 0.700000 0.700000
vt 0.100000 0.700000
vt 0.100000 0.100000
vt 0.700000 0.100000
vt 0.700000 0.700000
vt 0.100000 0.700000
vt 0.100000 0.100000
vt 0.700000 0.100000
vt 0.100000 0.700000
vt 0.100000 0.100000
vt 0.700000 0.700000
vt 0.700000 0.100000
vn -1.0000 0.0000 0.0000
vn 0.0000 0.0000 -1.0000
vn 1.0000 0.0000 0.0000
vn 0.0000 0.0000 1.0000
vn 0.0000 -1.0000 0.0000
vn 0.0000 1.0000 0.0000
s off
f 1/1/1 2/2/1 4/3/1 3/4/1
f 3/5/2 4/6/2 8/7/2 7/8/2
f 7/9/3 8/10/3 6/11/3 5/12/3
f 5/13/4 6/14/4 2/15/4 1/16/4
f 3/5/5 7/17/5 5/18/5 1/16/5
f 8/19/6 4/6/6 2/15/6 6/20/6
v -0.017200 -0.086814 0.071403
v -0.017200 0.081186 0.071403
v -0.017200 -0.086814 -0.068597
v -0.017200 0.081186 -0.068597
v 0.038800 -0.086814 0.071403
v 0.038800 0.081186 0.071403
v 0.038800 -0.086814 -0.068597
v 0.038800 0.081186 -0.068597
vt 0.700000 0.700000
vt 0.100000 0.700000
vt 0.100000 0.100000
vt 0.700000 0.100000
vt 0.700000 0.700000
vt 0.100000 0.700000
vt 0.100000 0.100000
vt 0.700000 0.100000
vt 0.700000 0.700000
vt 0.100000 0.700000
vt 0.100000 0.100000
vt 0.700000 0.100000
vt 0.700000 0.700000
vt 0.100000 0.700000
vt 0.100000 0.100000
vt 0.700000 0.100000
vt 0.100000 0.700000
vt 0.100000 0.100000
vt 0.700000 0.700000
vt 0.700000 0.100000
vn -1.0000 0.0000 0.0000
vn 0.0000 0.0000 -1.0000
vn 1.0000 0.0000 0.0000
vn 0.0000 0.0000 1.0000
vn 0.0000 -1.0000 0.0000
vn 0.0000 1.0000 0.0000
s off
f 9/21/7 10/22/7 12/23/7 11/24/7
f 11/25/8 12/26/8 16/27/8 15/28/8
f 15/29/9 16/30/9 14/31/9 13/32/9
f 13/33/10 14/34/10 10/35/10 9/36/10
f 11/25/11 15/37/11 13/38/11 9/36/11
f 16/39/12 12/26/12 10/35/12 14/40/12
v -0.031541 0.051074 -0.078762
v -0.031541 0.092915 -0.075102
v -0.055482 0.056807 -0.144291
v -0.055482 0.098648 -0.140630
v 0.021082 0.052744 -0.097843
v 0.021082 0.094584 -0.094182
v -0.002859 0.058477 -0.163371
v -0.002859 0.100317 -0.159710
vt 0.700000 0.700000
vt 0.100000 0.700000
vt 0.100000 0.100000
vt 0.700000 0.100000
vt 0.700000 0.700000
vt 0.100000 0.700000
vt 0.100000 0.100000
vt 0.700000 0.100000
vt 0.700000 0.700000
vt 0.100000 0.700000
vt 0.100000 0.100000
vt 0.700000 0.100000
vt 0.700000 0.700000
vt 0.100000 0.700000
vt 0.100000 0.100000
vt 0.700000 0.100000
vt 0.100000 0.700000
vt 0.100000 0.100000
vt 0.700000 0.700000
vt 0.700000 0.100000
vn -0.9397 -0.0298 0.3407
vn -0.3420 0.0819 -0.9361
vn 0.9397 0.0298 -0.3407
vn 0.3420 -0.0819 0.9361
vn -0.0000 -0.9962 -0.0872
vn -0.0000 0.9962 0.0872
s off
f 17/41/13 18/42/13 20/43/13 19/44/13
f 19/45/14 20/46/14 24/47/14 23/48/14
f 23/49/15 24/50/15 22/51/15 21/52/15
f 21/53/16 22/54/16 18/55/16 17/56/16
f 19/45/17 23/57/17 21/58/17 17/56/17
f 24/59/18 20/46/18 18/55/18 22/60/18
v -0.031541 -0.094781 -0.071686
v -0.031541 -0.053419 -0.078980
v -0.055482 -0.106203 -0.136466
v -0.055482 -0.064841 -0.143759
v 0.021082 -0.098106 -0.090549
v 0.021082 -0.056745 -0.097842
v -0.002859 -0.109529 -0.155328
v -0.002859 -0.068167 -0.162621
vt 0.700000 0.700000
vt 0.100000 0.700000
vt 0.100000 0.100000
vt 0.700000 0.100000
vt 0.700000 0.700000
vt 0.100000 0.700000
vt 0.100000 0.100000
vt 0.700000 0.100000
vt 0.700000 0.700000
vt 0.100000 0.700000
vt 0.100000 0.100000
vt 0.700000 0.100000
vt 0.700000 0.700000
vt 0.100000 0.700000
vt 0.100000 0.100000
vt 0.700000 0.100000
vt 0.100000 0.700000
vt 0.100000 0.100000
vt 0.700000 0.700000
vt 0.700000 0.100000
vn -0.9397 0.0594 0.3368
vn -0.3420 -0.1632 -0.9254
vn 0.9397 -0.0594 -0.3368
vn 0.3420 0.1632 0.9254
vn -0.0000 -0.9848 0.1736
vn -0.0000 0.9848 -0.1736
s off
f 25/61/19 26/62/19 28/63/19 27/64/19
f 27/65/20 28/66/20 32/67/20 31/68/20
f 31/69/21 32/70/21 30/71/21 29/72/21
f 29/73/22 30/74/22 26/75/22 25/76/22
f 27/65/23 31/77/23 29/78/23 25/76/23
f 32/79/24 28/66/24 26/75/24 30/80/24
v -0.066392 0.058167 -0.163836
v -0.066392 0.100007 -0.160176
v -0.118000 0.083877 -0.216757
v -0.042725 0.062591 -0.214397
v -0.042725 0.104431 -0.210736
vt 0.900000 0.900000
vt 0.700000 0.900000
vt 0.900000 0.700000
vt 0.900000 0.900000
vt 0.700000 0.900000
vt 0.700000 0.700000
vt 0.100000 0.700000
vt 0.100000 0.100000
vt 0.700000 0.100000
vt 0.900000 0.900000
vt 0.700000 0.900000
vt 0.900000 0.900000
vt 0.700000 0.900000
vn -0.7290 -0.0597 0.6819
vn 0.0558 0.0870 -0.9946
vn 0.9063 -0.0368 0.4210
vn -0.2604 -0.9436 -0.2045
vn -0.2604 0.9648 -0.0375
s off
f 33/81/25 34/82/25 35/83/25
f 35/83/26 37/84/26 36/85/26
f 36/86/27 37/87/27 34/88/27 33/89/27
f 35/83/28 36/90/28 33/91/28
f 35/83/29 34/92/29 37/93/29
v -0.031541 -0.023814 -0.082131
v -0.031541 0.018186 -0.082131
v -0.055482 -0.023814 -0.147909
v -0.055482 0.018186 -0.147909
v 0.021082 -0.023814 -0.101284
v 0.021082 0.018186 -0.101284
v -0.002859 -0.023814 -0.167062
v -0.002859 0.018186 -0.167062
vt 0.700000 0.700000
vt 0.100000 0.700000
vt 0.100000 0.100000
vt 0.700000 0.100000
vt 0.700000 0.700000
vt 0.100000 0.700000
vt 0.100000 0.100000
vt 0.700000 0.100000
vt 0.700000 0.700000
vt 0.100000 0.700000
vt 0.100000 0.100000
vt 0.700000 0.100000
vt 0.700000 0.700000
vt 0.100000 0.700000
vt 0.100000 0.100000
vt 0.700000 0.100000
vt 0.100000 0.700000
vt 0.100000 0.100000
vt 0.700000 0.700000
vt 0.700000 0.100000
vn -0.9397 0.0000 0.3420
vn -0.3420 0.0000 -0.9397
vn 0.9397 0.0000 -0.3420
vn 0.3420 0.0000 0.9397
vn 0.0000 -1.0000 -0.0000
vn 0.0000 1.0000 0.0000
s off
f 38/94/30 39/95/30 41/96/30 40/97/30
f 40/98/31 41/99/31 45/100/31 44/101/31
f 44/102/32 45/103/32 43/104/32 42/105/32
f 42/106/33 43/107/33 39/108/33 38/109/33
f 40/98/34 44/110/34 42/111/34 38/109/34
f 45/112/35 41/99/35 39/108/35 43/113/35
v -0.069192 -0.023814 -0.164837
v -0.069192 0.018186 -0.164837
v -0.120800 -0.002814 -0.219797
v -0.045525 -0.023814 -0.215590
v -0.045525 0.018186 -0.215590
vt 0.900000 0.900000
vt 0.700000 0.900000
vt 0.900000 0.700000
vt 0.900000 0.900000
vt 0.700000 0.900000
vt 0.700000 0.700000
vt 0.100000 0.700000
vt 0.100000 0.100000
vt 0.700000 0.100000
vt 0.900000 0.900000
vt 0.700000 0.900000
vt 0.900000 0.900000
vt 0.700000 0.900000
vn -0.7290 0.0000 0.6845
vn 0.0558 0.0000 -0.9984
vn 0.9063 0.0000 0.4226
vn -0.2604 -0.9578 -0.1214
vn -0.2604 0.9578 -0.1214
s off
f 46/114/36 47/115/36 48/116/36
f 48/116/37 50/117/37 49/118/37
f 49/119/38 50/120/38 47/121/38 46/122/38
f 48/116/39 49/123/39 46/124/39
f 48/116/40 47/125/40 50/126/40
v -0.079520 -0.110280 -0.144665
v -0.079520 -0.068918 -0.151958
v -0.120800 -0.100553 -0.210440
v -0.047399 -0.118245 -0.189840
v -0.047399 -0.076883 -0.197134
vt 0.900000 0.900000
vt 0.700000 0.900000
vt 0.900000 0.700000
vt 0.900000 0.900000
vt 0.700000 0.900000
vt 0.700000 0.700000
vt 0.100000 0.700000
vt 0.100000 0.100000
vt 0.700000 0.100000
vt 0.900000 0.900000
vt 0.700000 0.900000
vt 0.900000 0.900000
vt 0.700000 0.900000
vn -0.8368 0.0951 0.5392
vn 0.2283 -0.1691 -0.9588
vn 0.8192 0.0996 0.5649
vn -0.2354 -0.9719 0.0040
vn -0.2354 0.9147 -0.3286
s off
f 51/127/41 52/128/41 53/129/41
f 53/129/42 55/130/42 54/131/42
f 54/132/43 55/133/43 52/134/43 51/135/43
f 53/129/44 54/136/44 51/137/44
f 53/129/45 52/138/45 55/139/45
v -0.021654 0.076571 0.036056
v -0.021654 0.087441 0.076625
v -0.045200 0.151186 0.037803
v 0.021244 0.111340 0.026739
v 0.021244 0.122210 0.067308
vt 0.900000 0.900000
vt 0.700000 0.900000
vt 0.900000 0.700000
vt 0.900000 0.900000
vt 0.700000 0.900000
vt 0.700000 0.700000
vt 0.100000 0.700000
vt 0.100000 0.100000
vt 0.700000 0.100000
vt 0.900000 0.900000
vt 0.700000 0.900000
vt 0.900000 0.900000
vt 0.700000 0.900000
vn -0.9500 -0.3017 0.0808
vn 0.4725 0.8513 -0.2281
vn 0.6428 -0.7399 0.1983
vn -0.1847 -0.0353 -0.9822
vn -0.1847 0.4605 0.8682
s off
f 56/140/46 57/141/46 58/142/46
f 58/142/47 60/143/47 59/144/47
f 59/145/48 60/146/48 57/147/48 56/148/48
f 58/142/49 59/149/49 56/150/49
f 58/142/50 57/151/50 60/152/50
